<svg width="1026" height="1024" xmlns="http://www.w3.org/2000/svg" t="1736499733732" class="icon" version="1.1" p-id="13809">
 <g>
  <title>Layer 1</title>
  <path id="svg_2" d="m2.81818,-1.45636l1024,0l0,1023.27637l-1024,0l0,-1023.27637z" opacity="undefined" fill="#F5F6F7"/>
  <g stroke="null">
   <path stroke="null" p-id="9693" fill="#8a8a8a" d="m592.15577,316.72742l0,25.47034l-269.12963,0a7.91558,8.49011 0 0 0 -7.91558,8.49011l0,322.62427a7.91558,8.49011 0 0 0 7.91558,8.49011l379.94772,0a7.91558,8.49011 0 0 0 7.91558,-8.49011l0,-203.7627l23.74673,0l0,203.7627a31.66231,33.96045 0 0 1 -31.66231,33.96045l-379.94772,0a31.66231,33.96045 0 0 1 -31.66231,-33.96045l0,-322.62427a31.66231,33.96045 0 0 1 31.66231,-33.96045l269.12963,0zm94.98693,50.94067l35.6201,0a11.87337,12.73517 0 0 1 0,25.47034l-35.6201,0l0,38.20551a11.87337,12.73517 0 0 1 -23.74673,0l0,-38.20551l-35.6201,0a11.87337,12.73517 0 0 1 0,-25.47034l35.6201,0l0,-38.20551a11.87337,12.73517 0 0 1 23.74673,0l0,38.20551zm-15.83115,272.90617l-316.6231,0l78.9658,-114.58256l53.41432,73.06591l14.70714,0l91.34576,-204.25512l78.19007,245.77177zm-276.36447,-211.73491c0,-19.92629 14.70714,-35.70092 32.50928,-35.70092c17.81005,0 32.51719,15.77463 32.51719,35.70092c0,12.45499 -6.1979,24.08645 -16.2586,30.72572a30.77576,33.00956 0 0 1 -32.51719,0c-10.0607,-5.81573 -16.25068,-18.27072 -16.25068,-30.72572z"/>
  </g>
 </g>

</svg>