<?xml version="1.0" standalone="no"?><!DOCTYPE svg PUBLIC "-//W3C//DTD SVG 1.1//EN" "http://www.w3.org/Graphics/SVG/1.1/DTD/svg11.dtd"><svg t="1754755090104" class="icon" viewBox="0 0 1024 1024" version="1.1" xmlns="http://www.w3.org/2000/svg" p-id="1646" xmlns:xlink="http://www.w3.org/1999/xlink" width="200" height="200"><path d="M0 0h1024v1023.276373H0z" fill="#F5F6F7" p-id="1647"></path><path d="M383.453867 344.405333c2.935467 0 5.290667-2.095787 5.290666-4.7104v-14.1312c0-2.614613-2.3552-4.7104-5.290666-4.7104H346.385067c-2.935467 0-5.290667 2.095787-5.290667 4.7104v14.1312c0 2.594133 2.3552 4.7104 5.290667 4.7104h37.075626zM436.40832 521.045333c0 45.52704 37.341867 82.432 83.408213 82.432s83.41504-36.90496 83.41504-82.432-37.341867-82.432-83.41504-82.432c-46.05952 0-83.408213 36.90496-83.408213 82.432z" fill="#C2C3C4" p-id="1648"></path><path d="M245.76 415.061333v235.52c0 47.104 47.663787 47.104 47.663787 47.104h428.960426s47.663787 0 47.663787-47.104V415.061333c0-47.104-47.663787-47.104-47.663787-47.104H627.063467L603.231573 320.853333H436.40832l-23.825067 47.104H293.41696S245.76 367.957333 245.76 415.061333z m405.128533 0c13.154987 0 23.831893 10.554027 23.831894 23.552 0 12.997973-10.676907 23.552-23.825067 23.552-13.161813 0-23.831893-10.554027-23.831893-23.552 0-12.997973 10.67008-23.552 23.825066-23.552z m-131.072 0c59.221333 0 107.246933 47.458987 107.246934 105.984S579.037867 627.029333 519.816533 627.029333c-59.214507 0-107.240107-47.458987-107.240106-105.984S460.602027 415.061333 519.82336 415.061333z" fill="#C2C3C4" p-id="1649"></path></svg>